<svg width="110" height="38" viewBox="0 0 110 38" fill="none" xmlns="http://www.w3.org/2000/svg">
<path d="M36.8269 17.4333L36.248 16.8725C35.9679 17.1779 35.6242 17.4224 35.2395 17.5898C34.8548 17.7572 34.4378 17.8437 34.0161 17.8437C33.5944 17.8437 33.1774 17.7572 32.7927 17.5898C32.408 17.4224 32.0643 17.1779 31.7842 16.8725L31.2053 17.4333C31.0954 17.5435 31.0334 17.6905 31.0322 17.8437V23.625C31.0327 23.7782 31.0957 23.9249 31.2075 24.0333C31.3194 24.1416 31.4709 24.2026 31.629 24.2031H36.4032C36.5613 24.2026 36.7128 24.1416 36.8247 24.0333C36.9365 23.9249 36.9995 23.7782 37 23.625V17.8437C36.9988 17.6905 36.9368 17.5435 36.8269 17.4333Z" fill="white"/>
<path d="M26.8548 13.7275L18.0584 17.6819C17.823 17.7885 17.5663 17.8437 17.3064 17.8437C17.0466 17.8437 16.7899 17.7885 16.5545 17.6819L7.75806 13.7275V16.1614L17.3064 20.4742L26.8548 16.1556V13.7275Z" fill="white"/>
<path d="M17.0558 21.6362L7.75806 17.4333V19.5781C7.75895 19.6884 7.79188 19.7963 7.85309 19.8893C7.91431 19.9824 8.00132 20.0568 8.10419 20.1042L17.0558 24.1511C17.1346 24.1854 17.22 24.2031 17.3064 24.2031C17.3928 24.2031 17.4783 24.1854 17.5571 24.1511L26.5087 20.1042C26.6116 20.0568 26.6986 19.9824 26.7598 19.8893C26.821 19.7963 26.8539 19.6884 26.8548 19.5781V17.4333L17.5571 21.6362C17.4794 21.6742 17.3935 21.694 17.3064 21.694C17.2194 21.694 17.1335 21.6742 17.0558 21.6362Z" fill="white"/>
<path d="M17.3065 16.6875C17.3929 16.6875 17.4783 16.6698 17.5571 16.6355L33.4194 9.5014V12.1203C33.8132 12.0432 34.219 12.0432 34.6129 12.1203V8.59374C34.6122 8.44062 34.5491 8.29396 34.4374 8.18568C34.3256 8.07741 34.1742 8.01629 34.0161 8.01562H17.3065C17.1482 8.01562 16.9964 7.95471 16.8845 7.84629C16.7726 7.73787 16.7097 7.59082 16.7097 7.43749C16.7097 7.28417 16.7726 7.13712 16.8845 7.0287C16.9964 6.92028 17.1482 6.85937 17.3065 6.85937H31.5813L17.5571 0.552036C17.4783 0.517735 17.3929 0.5 17.3065 0.5C17.2201 0.5 17.1346 0.517735 17.0558 0.552036L0.346145 8.06765C0.242727 8.11431 0.155214 8.18861 0.0938943 8.28181C0.032575 8.375 0 8.48322 0 8.59374C0 8.70426 0.032575 8.81248 0.0938943 8.90568C0.155214 8.99888 0.242727 9.07317 0.346145 9.11984L17.0558 16.6355C17.1346 16.6698 17.2201 16.6875 17.3065 16.6875Z" fill="white"/>
<path d="M34.0162 16.6875C35.0049 16.6875 35.8065 15.911 35.8065 14.9531C35.8065 13.9952 35.0049 13.2187 34.0162 13.2187C33.0274 13.2187 32.2258 13.9952 32.2258 14.9531C32.2258 15.911 33.0274 16.6875 34.0162 16.6875Z" fill="white"/>
<path d="M28.0484 31.1406H26.27C26.3953 33.7364 27.3263 35.7598 28.6452 36.2281V31.7187C28.6447 31.5655 28.5817 31.4187 28.4699 31.3104C28.3581 31.2021 28.2065 31.141 28.0484 31.1406Z" fill="white"/>
<path d="M29.242 24.7812C29.214 24.7803 29.186 24.7822 29.1584 24.787L28.866 24.8274C28.8415 24.8305 28.8175 24.8363 28.7944 24.8448C27.3979 25.2148 26.3953 27.2903 26.27 29.9843H28.0484C28.5228 29.9857 28.9774 30.1688 29.3128 30.4938C29.6483 30.8187 29.8373 31.2591 29.8387 31.7187V36.2338C31.2352 35.7309 32.2258 33.4588 32.2258 30.5624C32.2258 27.2672 30.9428 24.7812 29.242 24.7812Z" fill="white"/>
<path d="M5.45463 24.787C5.42707 24.7822 5.39906 24.7803 5.37108 24.7812C3.67027 24.7812 2.38721 27.2672 2.38721 30.5625C2.38721 33.8578 3.67027 36.3437 5.37108 36.3437C5.39906 36.3447 5.42707 36.3427 5.45463 36.3379L13.1291 35.2221V26.5156C13.1293 26.3125 13.1574 26.1103 13.2127 25.9143L5.74704 24.8275L5.45463 24.787Z" fill="white"/>
<path d="M26.4968 25.1743L21.4004 25.9143C21.4557 26.1103 21.4838 26.3125 21.4839 26.5156V35.2221L26.4909 35.9506C25.5897 34.7076 25.0646 32.8114 25.0646 30.5625C25.0646 28.3078 25.5897 26.4115 26.4968 25.1743Z" fill="white"/>
<path d="M19.0967 25.3593H15.5161C15.1996 25.3597 14.8962 25.4816 14.6725 25.6984C14.4487 25.9152 14.3229 26.209 14.3225 26.5156V36.9218C14.3225 37.0204 14.3485 37.1173 14.3981 37.2034C14.4476 37.2894 14.519 37.3618 14.6055 37.4136C14.6921 37.4655 14.7909 37.495 14.8925 37.4994C14.9941 37.5038 15.0952 37.483 15.1862 37.439L17.3064 36.412L19.4266 37.439C19.5175 37.483 19.6187 37.5038 19.7203 37.4994C19.8219 37.495 19.9207 37.4655 20.0072 37.4136C20.0937 37.3618 20.1652 37.2894 20.2147 37.2034C20.2642 37.1173 20.2902 37.0204 20.2902 36.9218V26.5156C20.2899 26.209 20.164 25.9152 19.9403 25.6984C19.7165 25.4816 19.4131 25.3597 19.0967 25.3593Z" fill="white"/>
<path d="M61.3239 18.2102C61.2784 17.7519 61.0833 17.3958 60.7386 17.142C60.3939 16.8883 59.9261 16.7614 59.3352 16.7614C58.9337 16.7614 58.5947 16.8182 58.3182 16.9318C58.0417 17.0417 57.8295 17.1951 57.6818 17.392C57.5379 17.589 57.4659 17.8125 57.4659 18.0625C57.4583 18.2708 57.5019 18.4527 57.5966 18.608C57.6951 18.7633 57.8295 18.8977 58 19.0114C58.1705 19.1212 58.3674 19.2178 58.5909 19.3011C58.8144 19.3807 59.053 19.4489 59.3068 19.5057L60.3523 19.7557C60.8598 19.8693 61.3258 20.0208 61.75 20.2102C62.1742 20.3996 62.5417 20.6326 62.8523 20.9091C63.1629 21.1856 63.4034 21.5114 63.5739 21.8864C63.7481 22.2614 63.8371 22.6913 63.8409 23.1761C63.8371 23.8883 63.6553 24.5057 63.2955 25.0284C62.9394 25.5473 62.4242 25.9508 61.75 26.2386C61.0795 26.5227 60.2708 26.6648 59.3239 26.6648C58.3845 26.6648 57.5663 26.5208 56.8693 26.233C56.1761 25.9451 55.6345 25.5189 55.2443 24.9545C54.858 24.3864 54.6553 23.6837 54.6364 22.8466H57.017C57.0436 23.2367 57.1553 23.5625 57.3523 23.8239C57.553 24.0814 57.8201 24.2765 58.1534 24.4091C58.4905 24.5379 58.8712 24.6023 59.2955 24.6023C59.7121 24.6023 60.0739 24.5417 60.3807 24.4205C60.6913 24.2992 60.9318 24.1307 61.1023 23.9148C61.2727 23.6989 61.358 23.4508 61.358 23.1705C61.358 22.9091 61.2803 22.6894 61.125 22.5114C60.9735 22.3333 60.75 22.1818 60.4545 22.0568C60.1629 21.9318 59.8049 21.8182 59.3807 21.7159L58.1136 21.3977C57.1326 21.1591 56.358 20.786 55.7898 20.2784C55.2216 19.7708 54.9394 19.0871 54.9432 18.2273C54.9394 17.5227 55.1269 16.9072 55.5057 16.3807C55.8883 15.8542 56.4129 15.4432 57.0795 15.1477C57.7462 14.8523 58.5038 14.7045 59.3523 14.7045C60.2159 14.7045 60.9697 14.8523 61.6136 15.1477C62.2614 15.4432 62.7652 15.8542 63.125 16.3807C63.4848 16.9072 63.6705 17.517 63.6818 18.2102H61.3239ZM65.3707 26.5V25.0398L71.1776 16.892H65.3594V14.8636H74.2685V16.3239L68.456 24.4716H74.2798V26.5H65.3707ZM78.1733 26.5H75.5369L79.554 14.8636H82.7244L86.7358 26.5H84.0994L81.1847 17.5227H81.0938L78.1733 26.5ZM88.1364 26.5V14.8636H92.7273C93.6061 14.8636 94.3561 15.0208 94.9773 15.3352C95.6023 15.6458 96.0777 16.0871 96.4034 16.6591C96.733 17.2273 96.8977 17.8958 96.8977 18.6648C96.8977 19.4375 96.7311 20.1023 96.3977 20.6591C96.0644 21.2121 95.5814 21.6364 94.9489 21.9318C94.3201 22.2273 93.5587 22.375 92.6648 22.375H89.5909V20.3977H92.267C92.7367 20.3977 93.1269 20.3333 93.4375 20.2045C93.7481 20.0758 93.9792 19.8826 94.1307 19.625C94.286 19.3674 94.3636 19.0473 94.3636 18.6648C94.3636 18.2784 94.286 17.9527 94.1307 17.6875C93.9792 17.4223 93.7462 17.2216 93.4318 17.0852C93.1212 16.9451 92.7292 16.875 92.2557 16.875H90.5966V26.5H88.1364ZM94.4205 21.2045L97.3125 26.5H94.5966L91.767 21.2045H94.4205ZM100.642 26.5H98.0057L102.023 14.8636H105.193L109.205 26.5H106.568L103.653 17.5227H103.562L100.642 26.5Z" fill="white"/>
</svg>
